<svg width="16.05" height="16.062" xmlns="http://www.w3.org/2000/svg">

 <g>
  <title>background</title>
  <rect fill="none" id="canvas_background" height="402" width="582" y="-1" x="-1"/>
 </g>
 <g>
  <title>Layer 1</title>
  <path id="svg_1" fill="#7e57c2" d="m8,0.062c-4.418,0 -8,3.582 -8,8c0,4.03 2.983,7.336 6.857,7.893l0,-2.286l0,-1.214c-1.971,-0.508 -3.429,-2.263 -3.429,-4.393c0,-2.525 2.047,-4.571 4.571,-4.571c2.525,0 4.571,2.047 4.571,4.571c0,1.56 0.05,2.607 -1.143,3.429l-2.286,-2.286l0,6.857l6.857,0l-2.286,-2.286c0.224,-0.183 -0.238,0.099 -0.036,-0.107c0.399,-0.406 0.766,-0.874 1.071,-1.357c0.161,-0.255 0.297,-0.513 0.429,-0.786c0.141,-0.285 0.287,-0.554 0.393,-0.857c0.085,-0.25 0.154,-0.525 0.214,-0.786c0.017,-0.07 0.021,-0.144 0.036,-0.214c0.043,-0.211 0.081,-0.426 0.107,-0.643c0.002,-0.012 -0.001,-0.024 0,-0.036c0.036,-0.303 0.071,-0.616 0.071,-0.929c0,-4.418 -3.582,-8 -8,-8l0.003,0.001z"/>
 </g>
</svg>