<svg width="16" height="16" xmlns="http://www.w3.org/2000/svg">

 <g>
  <title>background</title>
  <rect fill="none" id="canvas_background" height="18" width="18" y="-1" x="-1"/>
 </g>
 <g>
  <title>Layer 1</title>
  <g id="svg_1" fill="#bebebe" transform="matrix(0,-1.3267658250163707,0.853074816564397,0,-633.2160800398468,259.9285007468647) ">
   <path fill="#bdbdbd" id="svg_2" d="m195.897499,747.645911l0,1c-0.001,0.011 0.001,0.021 0,0.031c-0.011,0.255 -0.128,0.51 -0.313,0.688l-5.719,6.298l-5.719,-6.298c-0.188,-0.188 -0.281,-0.453 -0.281,-0.719l0,-1l1,0c0.265,0 0.531,0.093 0.719,0.281l4.281,4.829l4.281,-4.829c0.195,-0.211 0.469,-0.303 0.75,-0.281l1.001,0z"/>
  </g>
 </g>
</svg>